<mxfile host="app.diagrams.net" modified="2024-05-04T11:26:34.513Z" agent="Mozilla/5.0 (Windows NT 10.0; Win64; x64; rv:109.0) Gecko/20100101 Firefox/118.0" etag="wtDb_3AE4KiRDUjXWEJ2" version="24.3.1" type="device">
  <diagram id="C5RBs43oDa-KdzZeNtuy" name="Page-1">
    <mxGraphModel dx="1862" dy="565" grid="1" gridSize="10" guides="1" tooltips="1" connect="1" arrows="1" fold="1" page="1" pageScale="1" pageWidth="827" pageHeight="1169" math="0" shadow="0">
      <root>
        <mxCell id="WIyWlLk6GJQsqaUBKTNV-0" />
        <mxCell id="WIyWlLk6GJQsqaUBKTNV-1" parent="WIyWlLk6GJQsqaUBKTNV-0" />
        <mxCell id="vI4MdaYWCv5y3t3SFthe-16" value="Direct chats" style="shape=table;startSize=50;container=1;collapsible=0;childLayout=tableLayout;fontSize=18;" parent="WIyWlLk6GJQsqaUBKTNV-1" vertex="1">
          <mxGeometry x="-800" y="30" width="560" height="850" as="geometry" />
        </mxCell>
        <mxCell id="vI4MdaYWCv5y3t3SFthe-17" value="" style="shape=tableRow;horizontal=0;startSize=0;swimlaneHead=0;swimlaneBody=0;strokeColor=inherit;top=0;left=0;bottom=0;right=0;collapsible=0;dropTarget=0;fillColor=none;points=[[0,0.5],[1,0.5]];portConstraint=eastwest;" parent="vI4MdaYWCv5y3t3SFthe-16" vertex="1">
          <mxGeometry y="50" width="560" height="800" as="geometry" />
        </mxCell>
        <mxCell id="vI4MdaYWCv5y3t3SFthe-18" value="" style="shape=partialRectangle;html=1;whiteSpace=wrap;connectable=0;strokeColor=inherit;overflow=hidden;fillColor=none;top=0;left=0;bottom=0;right=0;pointerEvents=1;" parent="vI4MdaYWCv5y3t3SFthe-17" vertex="1">
          <mxGeometry width="560" height="800" as="geometry">
            <mxRectangle width="560" height="800" as="alternateBounds" />
          </mxGeometry>
        </mxCell>
        <mxCell id="vI4MdaYWCv5y3t3SFthe-19" value="Group chats" style="shape=table;startSize=50;container=1;collapsible=0;childLayout=tableLayout;fontSize=18;" parent="WIyWlLk6GJQsqaUBKTNV-1" vertex="1">
          <mxGeometry x="280" y="30" width="830" height="850" as="geometry" />
        </mxCell>
        <mxCell id="vI4MdaYWCv5y3t3SFthe-20" value="" style="shape=tableRow;horizontal=0;startSize=0;swimlaneHead=0;swimlaneBody=0;strokeColor=inherit;top=0;left=0;bottom=0;right=0;collapsible=0;dropTarget=0;fillColor=none;points=[[0,0.5],[1,0.5]];portConstraint=eastwest;" parent="vI4MdaYWCv5y3t3SFthe-19" vertex="1">
          <mxGeometry y="50" width="830" height="800" as="geometry" />
        </mxCell>
        <mxCell id="vI4MdaYWCv5y3t3SFthe-21" value="" style="shape=partialRectangle;html=1;whiteSpace=wrap;connectable=0;strokeColor=inherit;overflow=hidden;fillColor=none;top=0;left=0;bottom=0;right=0;pointerEvents=1;" parent="vI4MdaYWCv5y3t3SFthe-20" vertex="1">
          <mxGeometry width="830" height="800" as="geometry">
            <mxRectangle width="830" height="800" as="alternateBounds" />
          </mxGeometry>
        </mxCell>
        <mxCell id="qlyE4x5iA-stie9pT-A9-2" value="" style="edgeStyle=orthogonalEdgeStyle;rounded=0;orthogonalLoop=1;jettySize=auto;html=1;strokeWidth=3;" parent="WIyWlLk6GJQsqaUBKTNV-1" source="vI4MdaYWCv5y3t3SFthe-22" target="qlyE4x5iA-stie9pT-A9-1" edge="1">
          <mxGeometry relative="1" as="geometry" />
        </mxCell>
        <mxCell id="vI4MdaYWCv5y3t3SFthe-22" value="&lt;font size=&quot;3&quot;&gt;START&lt;/font&gt;" style="strokeWidth=2;html=1;shape=mxgraph.flowchart.terminator;whiteSpace=wrap;" parent="WIyWlLk6GJQsqaUBKTNV-1" vertex="1">
          <mxGeometry x="-540" y="100" width="120" height="60" as="geometry" />
        </mxCell>
        <mxCell id="vI4MdaYWCv5y3t3SFthe-24" value="Register" style="shape=table;startSize=50;container=1;collapsible=0;childLayout=tableLayout;fontSize=18;" parent="WIyWlLk6GJQsqaUBKTNV-1" vertex="1">
          <mxGeometry x="-800" y="920" width="560" height="840" as="geometry" />
        </mxCell>
        <mxCell id="vI4MdaYWCv5y3t3SFthe-25" value="" style="shape=tableRow;horizontal=0;startSize=0;swimlaneHead=0;swimlaneBody=0;strokeColor=inherit;top=0;left=0;bottom=0;right=0;collapsible=0;dropTarget=0;fillColor=none;points=[[0,0.5],[1,0.5]];portConstraint=eastwest;" parent="vI4MdaYWCv5y3t3SFthe-24" vertex="1">
          <mxGeometry y="50" width="560" height="790" as="geometry" />
        </mxCell>
        <mxCell id="vI4MdaYWCv5y3t3SFthe-26" value="" style="shape=partialRectangle;html=1;whiteSpace=wrap;connectable=0;strokeColor=inherit;overflow=hidden;fillColor=none;top=0;left=0;bottom=0;right=0;pointerEvents=1;" parent="vI4MdaYWCv5y3t3SFthe-25" vertex="1">
          <mxGeometry width="560" height="790" as="geometry">
            <mxRectangle width="560" height="790" as="alternateBounds" />
          </mxGeometry>
        </mxCell>
        <mxCell id="vI4MdaYWCv5y3t3SFthe-29" value="" style="edgeStyle=orthogonalEdgeStyle;rounded=0;orthogonalLoop=1;jettySize=auto;html=1;strokeWidth=3;" parent="WIyWlLk6GJQsqaUBKTNV-1" source="vI4MdaYWCv5y3t3SFthe-27" target="vI4MdaYWCv5y3t3SFthe-28" edge="1">
          <mxGeometry relative="1" as="geometry" />
        </mxCell>
        <mxCell id="vI4MdaYWCv5y3t3SFthe-27" value="&lt;font size=&quot;3&quot;&gt;START&lt;/font&gt;" style="strokeWidth=2;html=1;shape=mxgraph.flowchart.terminator;whiteSpace=wrap;" parent="WIyWlLk6GJQsqaUBKTNV-1" vertex="1">
          <mxGeometry x="-580" y="990" width="120" height="60" as="geometry" />
        </mxCell>
        <mxCell id="vI4MdaYWCv5y3t3SFthe-31" value="" style="edgeStyle=orthogonalEdgeStyle;rounded=0;orthogonalLoop=1;jettySize=auto;html=1;strokeWidth=3;" parent="WIyWlLk6GJQsqaUBKTNV-1" source="vI4MdaYWCv5y3t3SFthe-28" target="vI4MdaYWCv5y3t3SFthe-30" edge="1">
          <mxGeometry relative="1" as="geometry" />
        </mxCell>
        <mxCell id="vI4MdaYWCv5y3t3SFthe-28" value="&lt;font size=&quot;3&quot;&gt;input username &amp;amp; password&lt;/font&gt;" style="shape=parallelogram;html=1;strokeWidth=2;perimeter=parallelogramPerimeter;whiteSpace=wrap;rounded=1;arcSize=12;size=0.23;spacingLeft=10;spacingRight=10;" parent="WIyWlLk6GJQsqaUBKTNV-1" vertex="1">
          <mxGeometry x="-740" y="1100" width="215" height="100" as="geometry" />
        </mxCell>
        <mxCell id="vI4MdaYWCv5y3t3SFthe-38" value="" style="edgeStyle=orthogonalEdgeStyle;rounded=0;orthogonalLoop=1;jettySize=auto;html=1;strokeWidth=3;" parent="WIyWlLk6GJQsqaUBKTNV-1" source="vI4MdaYWCv5y3t3SFthe-30" target="vI4MdaYWCv5y3t3SFthe-37" edge="1">
          <mxGeometry relative="1" as="geometry" />
        </mxCell>
        <mxCell id="vI4MdaYWCv5y3t3SFthe-30" value="&lt;font size=&quot;3&quot;&gt;send those data to server and filter it&lt;br&gt;&lt;/font&gt;" style="rounded=1;whiteSpace=wrap;html=1;absoluteArcSize=1;arcSize=14;strokeWidth=2;spacingLeft=10;spacingRight=10;" parent="WIyWlLk6GJQsqaUBKTNV-1" vertex="1">
          <mxGeometry x="-737.5" y="1240" width="210" height="100" as="geometry" />
        </mxCell>
        <mxCell id="vI4MdaYWCv5y3t3SFthe-32" value="&lt;p style=&quot;line-height: 120%;&quot;&gt;&lt;font style=&quot;font-size: 16px;&quot;&gt;users table&lt;br&gt;&lt;/font&gt;&lt;/p&gt;" style="strokeWidth=2;html=1;shape=mxgraph.flowchart.merge_or_storage;whiteSpace=wrap;verticalAlign=middle;horizontal=1;spacingTop=0;spacingBottom=10;spacingLeft=20;spacingRight=20;" parent="WIyWlLk6GJQsqaUBKTNV-1" vertex="1">
          <mxGeometry x="-667.5" y="1420" width="110" height="60" as="geometry" />
        </mxCell>
        <mxCell id="vI4MdaYWCv5y3t3SFthe-48" value="" style="edgeStyle=orthogonalEdgeStyle;rounded=0;orthogonalLoop=1;jettySize=auto;html=1;strokeWidth=3;" parent="WIyWlLk6GJQsqaUBKTNV-1" source="vI4MdaYWCv5y3t3SFthe-35" target="vI4MdaYWCv5y3t3SFthe-47" edge="1">
          <mxGeometry relative="1" as="geometry" />
        </mxCell>
        <mxCell id="vI4MdaYWCv5y3t3SFthe-35" value="&lt;font size=&quot;3&quot;&gt;display register success&lt;/font&gt;" style="strokeWidth=2;html=1;shape=mxgraph.flowchart.display;whiteSpace=wrap;" parent="WIyWlLk6GJQsqaUBKTNV-1" vertex="1">
          <mxGeometry x="-512.5" y="1540" width="210" height="100" as="geometry" />
        </mxCell>
        <mxCell id="vI4MdaYWCv5y3t3SFthe-41" value="" style="edgeStyle=orthogonalEdgeStyle;rounded=0;orthogonalLoop=1;jettySize=auto;html=1;strokeWidth=3;" parent="WIyWlLk6GJQsqaUBKTNV-1" source="vI4MdaYWCv5y3t3SFthe-37" target="vI4MdaYWCv5y3t3SFthe-28" edge="1">
          <mxGeometry relative="1" as="geometry">
            <Array as="points">
              <mxPoint x="-408" y="1140" />
            </Array>
          </mxGeometry>
        </mxCell>
        <mxCell id="vI4MdaYWCv5y3t3SFthe-42" value="&lt;font style=&quot;font-size: 18px;&quot;&gt;NO&lt;/font&gt;" style="edgeLabel;html=1;align=center;verticalAlign=middle;resizable=0;points=[];" parent="vI4MdaYWCv5y3t3SFthe-41" vertex="1" connectable="0">
          <mxGeometry x="-0.6327" y="1" relative="1" as="geometry">
            <mxPoint as="offset" />
          </mxGeometry>
        </mxCell>
        <mxCell id="vI4MdaYWCv5y3t3SFthe-44" value="" style="edgeStyle=orthogonalEdgeStyle;rounded=0;orthogonalLoop=1;jettySize=auto;html=1;strokeWidth=3;" parent="WIyWlLk6GJQsqaUBKTNV-1" source="vI4MdaYWCv5y3t3SFthe-37" target="vI4MdaYWCv5y3t3SFthe-43" edge="1">
          <mxGeometry relative="1" as="geometry" />
        </mxCell>
        <mxCell id="vI4MdaYWCv5y3t3SFthe-49" value="&lt;font style=&quot;font-size: 18px;&quot;&gt;YES&lt;/font&gt;" style="edgeLabel;html=1;align=center;verticalAlign=middle;resizable=0;points=[];" parent="vI4MdaYWCv5y3t3SFthe-44" vertex="1" connectable="0">
          <mxGeometry x="-0.3294" y="-3" relative="1" as="geometry">
            <mxPoint as="offset" />
          </mxGeometry>
        </mxCell>
        <mxCell id="vI4MdaYWCv5y3t3SFthe-37" value="&lt;font size=&quot;3&quot;&gt;filter success?&lt;/font&gt;" style="strokeWidth=2;html=1;shape=mxgraph.flowchart.decision;whiteSpace=wrap;verticalAlign=middle;spacingBottom=10;" parent="WIyWlLk6GJQsqaUBKTNV-1" vertex="1">
          <mxGeometry x="-457.5" y="1240" width="100" height="100" as="geometry" />
        </mxCell>
        <mxCell id="vI4MdaYWCv5y3t3SFthe-45" value="" style="edgeStyle=orthogonalEdgeStyle;rounded=0;orthogonalLoop=1;jettySize=auto;html=1;strokeWidth=3;" parent="WIyWlLk6GJQsqaUBKTNV-1" source="vI4MdaYWCv5y3t3SFthe-43" target="vI4MdaYWCv5y3t3SFthe-35" edge="1">
          <mxGeometry relative="1" as="geometry" />
        </mxCell>
        <mxCell id="qlyE4x5iA-stie9pT-A9-40" value="" style="edgeStyle=orthogonalEdgeStyle;rounded=0;orthogonalLoop=1;jettySize=auto;html=1;strokeWidth=3;" parent="WIyWlLk6GJQsqaUBKTNV-1" source="vI4MdaYWCv5y3t3SFthe-43" target="vI4MdaYWCv5y3t3SFthe-32" edge="1">
          <mxGeometry relative="1" as="geometry" />
        </mxCell>
        <mxCell id="vI4MdaYWCv5y3t3SFthe-43" value="&lt;font size=&quot;3&quot;&gt;hash password then insert to database&lt;br&gt;&lt;/font&gt;" style="rounded=1;whiteSpace=wrap;html=1;absoluteArcSize=1;arcSize=14;strokeWidth=2;spacingLeft=10;spacingRight=10;" parent="WIyWlLk6GJQsqaUBKTNV-1" vertex="1">
          <mxGeometry x="-512.5" y="1400" width="210" height="100" as="geometry" />
        </mxCell>
        <mxCell id="vI4MdaYWCv5y3t3SFthe-47" value="&lt;font size=&quot;3&quot;&gt;END&lt;/font&gt;" style="strokeWidth=2;html=1;shape=mxgraph.flowchart.terminator;whiteSpace=wrap;" parent="WIyWlLk6GJQsqaUBKTNV-1" vertex="1">
          <mxGeometry x="-467.5" y="1680" width="120" height="60" as="geometry" />
        </mxCell>
        <mxCell id="qlyE4x5iA-stie9pT-A9-5" value="" style="edgeStyle=orthogonalEdgeStyle;rounded=0;orthogonalLoop=1;jettySize=auto;html=1;strokeWidth=3;" parent="WIyWlLk6GJQsqaUBKTNV-1" source="qlyE4x5iA-stie9pT-A9-1" target="qlyE4x5iA-stie9pT-A9-4" edge="1">
          <mxGeometry relative="1" as="geometry" />
        </mxCell>
        <mxCell id="qlyE4x5iA-stie9pT-A9-1" value="&lt;font size=&quot;3&quot;&gt;look for user&#39;s name in search box&lt;/font&gt;" style="shape=parallelogram;html=1;strokeWidth=2;perimeter=parallelogramPerimeter;whiteSpace=wrap;rounded=1;arcSize=12;size=0.23;spacingLeft=30;spacingRight=30;" parent="WIyWlLk6GJQsqaUBKTNV-1" vertex="1">
          <mxGeometry x="-470" y="210" width="215" height="100" as="geometry" />
        </mxCell>
        <mxCell id="qlyE4x5iA-stie9pT-A9-10" value="" style="edgeStyle=orthogonalEdgeStyle;rounded=0;orthogonalLoop=1;jettySize=auto;html=1;strokeWidth=3;" parent="WIyWlLk6GJQsqaUBKTNV-1" source="qlyE4x5iA-stie9pT-A9-4" target="qlyE4x5iA-stie9pT-A9-9" edge="1">
          <mxGeometry relative="1" as="geometry" />
        </mxCell>
        <mxCell id="qlyE4x5iA-stie9pT-A9-4" value="&lt;font size=&quot;3&quot;&gt;find the name in database (%LIKE% query)&lt;br&gt;&lt;/font&gt;" style="rounded=1;whiteSpace=wrap;html=1;absoluteArcSize=1;arcSize=14;strokeWidth=2;spacingLeft=10;spacingRight=10;" parent="WIyWlLk6GJQsqaUBKTNV-1" vertex="1">
          <mxGeometry x="-720" y="210" width="210" height="100" as="geometry" />
        </mxCell>
        <mxCell id="qlyE4x5iA-stie9pT-A9-8" value="" style="edgeStyle=orthogonalEdgeStyle;rounded=0;orthogonalLoop=1;jettySize=auto;html=1;strokeWidth=3;" parent="WIyWlLk6GJQsqaUBKTNV-1" source="qlyE4x5iA-stie9pT-A9-6" target="qlyE4x5iA-stie9pT-A9-4" edge="1">
          <mxGeometry relative="1" as="geometry">
            <Array as="points">
              <mxPoint x="-735" y="350" />
              <mxPoint x="-650" y="350" />
            </Array>
          </mxGeometry>
        </mxCell>
        <mxCell id="qlyE4x5iA-stie9pT-A9-6" value="&lt;p style=&quot;line-height: 120%;&quot;&gt;&lt;font style=&quot;font-size: 16px;&quot;&gt;users table&lt;br&gt;&lt;/font&gt;&lt;/p&gt;" style="strokeWidth=2;html=1;shape=mxgraph.flowchart.merge_or_storage;whiteSpace=wrap;verticalAlign=middle;horizontal=1;spacingTop=0;spacingBottom=10;spacingLeft=20;spacingRight=20;" parent="WIyWlLk6GJQsqaUBKTNV-1" vertex="1">
          <mxGeometry x="-790" y="370" width="110" height="60" as="geometry" />
        </mxCell>
        <mxCell id="qlyE4x5iA-stie9pT-A9-12" value="" style="edgeStyle=orthogonalEdgeStyle;rounded=0;orthogonalLoop=1;jettySize=auto;html=1;strokeWidth=3;" parent="WIyWlLk6GJQsqaUBKTNV-1" source="qlyE4x5iA-stie9pT-A9-9" target="qlyE4x5iA-stie9pT-A9-11" edge="1">
          <mxGeometry relative="1" as="geometry" />
        </mxCell>
        <mxCell id="qlyE4x5iA-stie9pT-A9-16" value="&lt;font style=&quot;font-size: 18px;&quot;&gt;NO&lt;/font&gt;" style="edgeLabel;html=1;align=center;verticalAlign=middle;resizable=0;points=[];" parent="qlyE4x5iA-stie9pT-A9-12" vertex="1" connectable="0">
          <mxGeometry x="-0.2612" y="1" relative="1" as="geometry">
            <mxPoint x="-1" as="offset" />
          </mxGeometry>
        </mxCell>
        <mxCell id="qlyE4x5iA-stie9pT-A9-15" value="" style="edgeStyle=orthogonalEdgeStyle;rounded=0;orthogonalLoop=1;jettySize=auto;html=1;strokeWidth=3;" parent="WIyWlLk6GJQsqaUBKTNV-1" source="qlyE4x5iA-stie9pT-A9-9" target="qlyE4x5iA-stie9pT-A9-14" edge="1">
          <mxGeometry relative="1" as="geometry" />
        </mxCell>
        <mxCell id="qlyE4x5iA-stie9pT-A9-17" value="&lt;font style=&quot;font-size: 18px;&quot;&gt;YES&lt;/font&gt;" style="edgeLabel;html=1;align=center;verticalAlign=middle;resizable=0;points=[];" parent="qlyE4x5iA-stie9pT-A9-15" vertex="1" connectable="0">
          <mxGeometry x="-0.1647" relative="1" as="geometry">
            <mxPoint as="offset" />
          </mxGeometry>
        </mxCell>
        <mxCell id="qlyE4x5iA-stie9pT-A9-9" value="&lt;font size=&quot;3&quot;&gt;name&amp;nbsp;&amp;nbsp; found?&lt;br&gt;&lt;/font&gt;" style="strokeWidth=2;html=1;shape=mxgraph.flowchart.decision;whiteSpace=wrap;verticalAlign=middle;spacingBottom=10;" parent="WIyWlLk6GJQsqaUBKTNV-1" vertex="1">
          <mxGeometry x="-665" y="360" width="100" height="100" as="geometry" />
        </mxCell>
        <mxCell id="qlyE4x5iA-stie9pT-A9-13" value="" style="edgeStyle=orthogonalEdgeStyle;rounded=0;orthogonalLoop=1;jettySize=auto;html=1;strokeWidth=3;" parent="WIyWlLk6GJQsqaUBKTNV-1" source="qlyE4x5iA-stie9pT-A9-11" target="qlyE4x5iA-stie9pT-A9-1" edge="1">
          <mxGeometry relative="1" as="geometry" />
        </mxCell>
        <mxCell id="qlyE4x5iA-stie9pT-A9-11" value="&lt;font size=&quot;3&quot;&gt;display username not found&lt;br&gt;&lt;/font&gt;" style="strokeWidth=2;html=1;shape=mxgraph.flowchart.display;whiteSpace=wrap;" parent="WIyWlLk6GJQsqaUBKTNV-1" vertex="1">
          <mxGeometry x="-490" y="360" width="190" height="100" as="geometry" />
        </mxCell>
        <mxCell id="qlyE4x5iA-stie9pT-A9-127" value="" style="edgeStyle=orthogonalEdgeStyle;rounded=0;orthogonalLoop=1;jettySize=auto;html=1;strokeWidth=3;" parent="WIyWlLk6GJQsqaUBKTNV-1" source="qlyE4x5iA-stie9pT-A9-14" target="qlyE4x5iA-stie9pT-A9-126" edge="1">
          <mxGeometry relative="1" as="geometry" />
        </mxCell>
        <mxCell id="qlyE4x5iA-stie9pT-A9-14" value="&lt;font size=&quot;3&quot;&gt;display username list&lt;br&gt;&lt;/font&gt;" style="strokeWidth=2;html=1;shape=mxgraph.flowchart.display;whiteSpace=wrap;" parent="WIyWlLk6GJQsqaUBKTNV-1" vertex="1">
          <mxGeometry x="-710" y="520" width="190" height="100" as="geometry" />
        </mxCell>
        <mxCell id="qlyE4x5iA-stie9pT-A9-43" value="" style="edgeStyle=orthogonalEdgeStyle;rounded=0;orthogonalLoop=1;jettySize=auto;html=1;strokeWidth=3;" parent="WIyWlLk6GJQsqaUBKTNV-1" source="qlyE4x5iA-stie9pT-A9-39" target="qlyE4x5iA-stie9pT-A9-42" edge="1">
          <mxGeometry relative="1" as="geometry" />
        </mxCell>
        <mxCell id="qlyE4x5iA-stie9pT-A9-39" value="&lt;font size=&quot;3&quot;&gt;START&lt;/font&gt;" style="strokeWidth=2;html=1;shape=mxgraph.flowchart.terminator;whiteSpace=wrap;" parent="WIyWlLk6GJQsqaUBKTNV-1" vertex="1">
          <mxGeometry x="635" y="100" width="120" height="60" as="geometry" />
        </mxCell>
        <mxCell id="qlyE4x5iA-stie9pT-A9-45" value="" style="edgeStyle=orthogonalEdgeStyle;rounded=0;orthogonalLoop=1;jettySize=auto;html=1;strokeWidth=3;" parent="WIyWlLk6GJQsqaUBKTNV-1" source="qlyE4x5iA-stie9pT-A9-42" target="qlyE4x5iA-stie9pT-A9-44" edge="1">
          <mxGeometry relative="1" as="geometry" />
        </mxCell>
        <mxCell id="qlyE4x5iA-stie9pT-A9-42" value="&lt;font size=&quot;3&quot;&gt;create group chat&lt;br&gt;&lt;/font&gt;" style="shape=parallelogram;html=1;strokeWidth=2;perimeter=parallelogramPerimeter;whiteSpace=wrap;rounded=1;arcSize=12;size=0.23;spacingLeft=30;spacingRight=30;" parent="WIyWlLk6GJQsqaUBKTNV-1" vertex="1">
          <mxGeometry x="697.5" y="210" width="215" height="100" as="geometry" />
        </mxCell>
        <mxCell id="qlyE4x5iA-stie9pT-A9-47" value="" style="edgeStyle=orthogonalEdgeStyle;rounded=0;orthogonalLoop=1;jettySize=auto;html=1;strokeWidth=3;" parent="WIyWlLk6GJQsqaUBKTNV-1" source="qlyE4x5iA-stie9pT-A9-44" target="qlyE4x5iA-stie9pT-A9-46" edge="1">
          <mxGeometry relative="1" as="geometry" />
        </mxCell>
        <mxCell id="qlyE4x5iA-stie9pT-A9-83" value="" style="edgeStyle=orthogonalEdgeStyle;rounded=0;orthogonalLoop=1;jettySize=auto;html=1;strokeWidth=3;" parent="WIyWlLk6GJQsqaUBKTNV-1" source="qlyE4x5iA-stie9pT-A9-44" target="qlyE4x5iA-stie9pT-A9-82" edge="1">
          <mxGeometry relative="1" as="geometry" />
        </mxCell>
        <mxCell id="qlyE4x5iA-stie9pT-A9-44" value="&lt;font size=&quot;3&quot;&gt;filter and insert the group to group_chats (GC) &amp;amp; group_chat_users (GCU) tables&lt;br&gt;&lt;/font&gt;" style="rounded=1;whiteSpace=wrap;html=1;absoluteArcSize=1;arcSize=14;strokeWidth=2;spacingLeft=10;spacingRight=10;" parent="WIyWlLk6GJQsqaUBKTNV-1" vertex="1">
          <mxGeometry x="432.5" y="210" width="210" height="100" as="geometry" />
        </mxCell>
        <mxCell id="qlyE4x5iA-stie9pT-A9-50" value="" style="edgeStyle=orthogonalEdgeStyle;rounded=0;orthogonalLoop=1;jettySize=auto;html=1;strokeWidth=3;" parent="WIyWlLk6GJQsqaUBKTNV-1" source="qlyE4x5iA-stie9pT-A9-46" target="qlyE4x5iA-stie9pT-A9-48" edge="1">
          <mxGeometry relative="1" as="geometry" />
        </mxCell>
        <mxCell id="qlyE4x5iA-stie9pT-A9-46" value="&lt;font size=&quot;3&quot;&gt;invite user by find its name then click invite&lt;br&gt;&lt;/font&gt;" style="shape=parallelogram;html=1;strokeWidth=2;perimeter=parallelogramPerimeter;whiteSpace=wrap;rounded=1;arcSize=12;size=0.23;spacingLeft=30;spacingRight=30;" parent="WIyWlLk6GJQsqaUBKTNV-1" vertex="1">
          <mxGeometry x="407.5" y="360" width="230" height="100" as="geometry" />
        </mxCell>
        <mxCell id="qlyE4x5iA-stie9pT-A9-52" value="" style="edgeStyle=orthogonalEdgeStyle;rounded=0;orthogonalLoop=1;jettySize=auto;html=1;strokeWidth=3;" parent="WIyWlLk6GJQsqaUBKTNV-1" source="qlyE4x5iA-stie9pT-A9-48" target="qlyE4x5iA-stie9pT-A9-51" edge="1">
          <mxGeometry relative="1" as="geometry" />
        </mxCell>
        <mxCell id="qlyE4x5iA-stie9pT-A9-48" value="&lt;div&gt;&lt;font size=&quot;3&quot;&gt;send invite message to target user and wait for user to click on that link&lt;/font&gt;&lt;/div&gt;" style="rounded=1;whiteSpace=wrap;html=1;absoluteArcSize=1;arcSize=14;strokeWidth=2;spacingLeft=10;spacingRight=10;" parent="WIyWlLk6GJQsqaUBKTNV-1" vertex="1">
          <mxGeometry x="417.5" y="500" width="210" height="100" as="geometry" />
        </mxCell>
        <mxCell id="qlyE4x5iA-stie9pT-A9-80" value="" style="edgeStyle=orthogonalEdgeStyle;rounded=0;orthogonalLoop=1;jettySize=auto;html=1;strokeWidth=3;" parent="WIyWlLk6GJQsqaUBKTNV-1" source="qlyE4x5iA-stie9pT-A9-51" target="qlyE4x5iA-stie9pT-A9-79" edge="1">
          <mxGeometry relative="1" as="geometry" />
        </mxCell>
        <mxCell id="qlyE4x5iA-stie9pT-A9-81" value="&lt;font style=&quot;font-size: 18px;&quot;&gt;YES&lt;/font&gt;" style="edgeLabel;html=1;align=center;verticalAlign=middle;resizable=0;points=[];" parent="qlyE4x5iA-stie9pT-A9-80" vertex="1" connectable="0">
          <mxGeometry x="-0.3294" relative="1" as="geometry">
            <mxPoint as="offset" />
          </mxGeometry>
        </mxCell>
        <mxCell id="qlyE4x5iA-stie9pT-A9-94" value="" style="edgeStyle=orthogonalEdgeStyle;rounded=0;orthogonalLoop=1;jettySize=auto;html=1;strokeWidth=3;" parent="WIyWlLk6GJQsqaUBKTNV-1" source="qlyE4x5iA-stie9pT-A9-51" target="qlyE4x5iA-stie9pT-A9-92" edge="1">
          <mxGeometry relative="1" as="geometry" />
        </mxCell>
        <mxCell id="9Kh59eUZxxJnhnXivkwY-0" value="&lt;font style=&quot;font-size: 18px;&quot;&gt;NO&lt;/font&gt;" style="edgeLabel;html=1;align=center;verticalAlign=middle;resizable=0;points=[];" vertex="1" connectable="0" parent="qlyE4x5iA-stie9pT-A9-94">
          <mxGeometry x="-0.0976" y="-1" relative="1" as="geometry">
            <mxPoint as="offset" />
          </mxGeometry>
        </mxCell>
        <mxCell id="qlyE4x5iA-stie9pT-A9-51" value="&lt;font size=&quot;3&quot;&gt;is link clicked?&lt;br&gt;&lt;/font&gt;" style="strokeWidth=2;html=1;shape=mxgraph.flowchart.decision;whiteSpace=wrap;verticalAlign=middle;spacingBottom=10;" parent="WIyWlLk6GJQsqaUBKTNV-1" vertex="1">
          <mxGeometry x="697.5" y="500" width="100" height="100" as="geometry" />
        </mxCell>
        <mxCell id="qlyE4x5iA-stie9pT-A9-85" value="" style="edgeStyle=orthogonalEdgeStyle;rounded=0;orthogonalLoop=1;jettySize=auto;html=1;strokeWidth=3;" parent="WIyWlLk6GJQsqaUBKTNV-1" source="qlyE4x5iA-stie9pT-A9-79" target="qlyE4x5iA-stie9pT-A9-84" edge="1">
          <mxGeometry relative="1" as="geometry" />
        </mxCell>
        <mxCell id="qlyE4x5iA-stie9pT-A9-87" value="" style="edgeStyle=orthogonalEdgeStyle;rounded=0;orthogonalLoop=1;jettySize=auto;html=1;strokeWidth=3;" parent="WIyWlLk6GJQsqaUBKTNV-1" source="qlyE4x5iA-stie9pT-A9-79" target="qlyE4x5iA-stie9pT-A9-86" edge="1">
          <mxGeometry relative="1" as="geometry" />
        </mxCell>
        <mxCell id="qlyE4x5iA-stie9pT-A9-79" value="&lt;font size=&quot;3&quot;&gt;the user can see the group chat, then update the group_chat_users table&lt;br&gt;&lt;/font&gt;" style="rounded=1;whiteSpace=wrap;html=1;absoluteArcSize=1;arcSize=14;strokeWidth=2;spacingLeft=10;spacingRight=10;" parent="WIyWlLk6GJQsqaUBKTNV-1" vertex="1">
          <mxGeometry x="642.5" y="660" width="210" height="100" as="geometry" />
        </mxCell>
        <mxCell id="qlyE4x5iA-stie9pT-A9-82" value="&lt;p style=&quot;line-height: 120%;&quot;&gt;&lt;font style=&quot;font-size: 16px;&quot;&gt;GC, GCU tables&lt;br&gt;&lt;/font&gt;&lt;/p&gt;" style="strokeWidth=2;html=1;shape=mxgraph.flowchart.merge_or_storage;whiteSpace=wrap;verticalAlign=middle;horizontal=1;spacingTop=0;spacingBottom=20;spacingLeft=20;spacingRight=20;" parent="WIyWlLk6GJQsqaUBKTNV-1" vertex="1">
          <mxGeometry x="300" y="320" width="130" height="70" as="geometry" />
        </mxCell>
        <mxCell id="qlyE4x5iA-stie9pT-A9-84" value="&lt;p style=&quot;line-height: 120%;&quot;&gt;&lt;font style=&quot;font-size: 16px;&quot;&gt;GCU tables&lt;/font&gt;&lt;/p&gt;" style="strokeWidth=2;html=1;shape=mxgraph.flowchart.merge_or_storage;whiteSpace=wrap;verticalAlign=middle;horizontal=1;spacingTop=0;spacingBottom=20;spacingLeft=20;spacingRight=20;" parent="WIyWlLk6GJQsqaUBKTNV-1" vertex="1">
          <mxGeometry x="895" y="675" width="130" height="70" as="geometry" />
        </mxCell>
        <mxCell id="qlyE4x5iA-stie9pT-A9-120" value="" style="edgeStyle=orthogonalEdgeStyle;rounded=0;orthogonalLoop=1;jettySize=auto;html=1;strokeWidth=3;" parent="WIyWlLk6GJQsqaUBKTNV-1" source="qlyE4x5iA-stie9pT-A9-86" target="qlyE4x5iA-stie9pT-A9-118" edge="1">
          <mxGeometry relative="1" as="geometry" />
        </mxCell>
        <mxCell id="qlyE4x5iA-stie9pT-A9-86" value="&lt;font size=&quot;3&quot;&gt;display new user joined message&lt;br&gt;&lt;/font&gt;" style="strokeWidth=2;html=1;shape=mxgraph.flowchart.display;whiteSpace=wrap;spacingLeft=10;spacingRight=10;" parent="WIyWlLk6GJQsqaUBKTNV-1" vertex="1">
          <mxGeometry x="410" y="660" width="190" height="100" as="geometry" />
        </mxCell>
        <mxCell id="qlyE4x5iA-stie9pT-A9-89" value="Re-open direct / group chat" style="shape=table;startSize=50;container=1;collapsible=0;childLayout=tableLayout;fontSize=18;" parent="WIyWlLk6GJQsqaUBKTNV-1" vertex="1">
          <mxGeometry x="-240" y="920" width="520" height="840" as="geometry" />
        </mxCell>
        <mxCell id="qlyE4x5iA-stie9pT-A9-90" value="" style="shape=tableRow;horizontal=0;startSize=0;swimlaneHead=0;swimlaneBody=0;strokeColor=inherit;top=0;left=0;bottom=0;right=0;collapsible=0;dropTarget=0;fillColor=none;points=[[0,0.5],[1,0.5]];portConstraint=eastwest;" parent="qlyE4x5iA-stie9pT-A9-89" vertex="1">
          <mxGeometry y="50" width="520" height="790" as="geometry" />
        </mxCell>
        <mxCell id="qlyE4x5iA-stie9pT-A9-91" value="" style="shape=partialRectangle;html=1;whiteSpace=wrap;connectable=0;strokeColor=inherit;overflow=hidden;fillColor=none;top=0;left=0;bottom=0;right=0;pointerEvents=1;" parent="qlyE4x5iA-stie9pT-A9-90" vertex="1">
          <mxGeometry width="520" height="790" as="geometry">
            <mxRectangle width="520" height="790" as="alternateBounds" />
          </mxGeometry>
        </mxCell>
        <mxCell id="qlyE4x5iA-stie9pT-A9-96" value="" style="edgeStyle=orthogonalEdgeStyle;rounded=0;orthogonalLoop=1;jettySize=auto;html=1;strokeWidth=3;" parent="WIyWlLk6GJQsqaUBKTNV-1" source="qlyE4x5iA-stie9pT-A9-92" target="qlyE4x5iA-stie9pT-A9-95" edge="1">
          <mxGeometry relative="1" as="geometry" />
        </mxCell>
        <mxCell id="qlyE4x5iA-stie9pT-A9-92" value="&lt;font size=&quot;3&quot;&gt;the user cannot see the group chat&lt;br&gt;&lt;/font&gt;" style="rounded=1;whiteSpace=wrap;html=1;absoluteArcSize=1;arcSize=14;strokeWidth=2;spacingLeft=10;spacingRight=10;" parent="WIyWlLk6GJQsqaUBKTNV-1" vertex="1">
          <mxGeometry x="860" y="400" width="210" height="100" as="geometry" />
        </mxCell>
        <mxCell id="qlyE4x5iA-stie9pT-A9-95" value="&lt;font size=&quot;3&quot;&gt;END&lt;/font&gt;" style="strokeWidth=2;html=1;shape=mxgraph.flowchart.terminator;whiteSpace=wrap;" parent="WIyWlLk6GJQsqaUBKTNV-1" vertex="1">
          <mxGeometry x="905" y="560" width="120" height="60" as="geometry" />
        </mxCell>
        <mxCell id="qlyE4x5iA-stie9pT-A9-97" value="Messages" style="shape=table;startSize=50;container=1;collapsible=0;childLayout=tableLayout;fontSize=18;" parent="WIyWlLk6GJQsqaUBKTNV-1" vertex="1">
          <mxGeometry x="-240" y="30" width="520" height="850" as="geometry" />
        </mxCell>
        <mxCell id="qlyE4x5iA-stie9pT-A9-98" value="" style="shape=tableRow;horizontal=0;startSize=0;swimlaneHead=0;swimlaneBody=0;strokeColor=inherit;top=0;left=0;bottom=0;right=0;collapsible=0;dropTarget=0;fillColor=none;points=[[0,0.5],[1,0.5]];portConstraint=eastwest;" parent="qlyE4x5iA-stie9pT-A9-97" vertex="1">
          <mxGeometry y="50" width="520" height="800" as="geometry" />
        </mxCell>
        <mxCell id="qlyE4x5iA-stie9pT-A9-99" value="" style="shape=partialRectangle;html=1;whiteSpace=wrap;connectable=0;strokeColor=inherit;overflow=hidden;fillColor=none;top=0;left=0;bottom=0;right=0;pointerEvents=1;" parent="qlyE4x5iA-stie9pT-A9-98" vertex="1">
          <mxGeometry width="520" height="800" as="geometry">
            <mxRectangle width="520" height="800" as="alternateBounds" />
          </mxGeometry>
        </mxCell>
        <mxCell id="qlyE4x5iA-stie9pT-A9-100" value="" style="edgeStyle=orthogonalEdgeStyle;rounded=0;orthogonalLoop=1;jettySize=auto;html=1;strokeWidth=3;" parent="WIyWlLk6GJQsqaUBKTNV-1" source="qlyE4x5iA-stie9pT-A9-101" target="qlyE4x5iA-stie9pT-A9-103" edge="1">
          <mxGeometry relative="1" as="geometry" />
        </mxCell>
        <mxCell id="qlyE4x5iA-stie9pT-A9-101" value="&lt;font size=&quot;3&quot;&gt;&amp;nbsp;send message&lt;br&gt;&lt;/font&gt;" style="shape=parallelogram;html=1;strokeWidth=2;perimeter=parallelogramPerimeter;whiteSpace=wrap;rounded=1;arcSize=12;size=0.23;spacingLeft=30;spacingRight=30;" parent="WIyWlLk6GJQsqaUBKTNV-1" vertex="1">
          <mxGeometry x="-206.5" y="210" width="215" height="100" as="geometry" />
        </mxCell>
        <mxCell id="qlyE4x5iA-stie9pT-A9-102" value="" style="edgeStyle=orthogonalEdgeStyle;rounded=0;orthogonalLoop=1;jettySize=auto;html=1;strokeWidth=3;" parent="WIyWlLk6GJQsqaUBKTNV-1" source="qlyE4x5iA-stie9pT-A9-103" target="qlyE4x5iA-stie9pT-A9-111" edge="1">
          <mxGeometry relative="1" as="geometry" />
        </mxCell>
        <mxCell id="qlyE4x5iA-stie9pT-A9-103" value="&lt;font size=&quot;3&quot;&gt;filter the message (middleware)&lt;br&gt;&lt;/font&gt;" style="rounded=1;whiteSpace=wrap;html=1;absoluteArcSize=1;arcSize=14;strokeWidth=2;spacingLeft=10;spacingRight=10;" parent="WIyWlLk6GJQsqaUBKTNV-1" vertex="1">
          <mxGeometry x="-204" y="380" width="210" height="100" as="geometry" />
        </mxCell>
        <mxCell id="qlyE4x5iA-stie9pT-A9-104" value="" style="edgeStyle=orthogonalEdgeStyle;rounded=0;orthogonalLoop=1;jettySize=auto;html=1;strokeWidth=3;" parent="WIyWlLk6GJQsqaUBKTNV-1" source="qlyE4x5iA-stie9pT-A9-106" target="qlyE4x5iA-stie9pT-A9-115" edge="1">
          <mxGeometry relative="1" as="geometry" />
        </mxCell>
        <mxCell id="qlyE4x5iA-stie9pT-A9-105" value="" style="edgeStyle=orthogonalEdgeStyle;rounded=0;orthogonalLoop=1;jettySize=auto;html=1;strokeWidth=3;" parent="WIyWlLk6GJQsqaUBKTNV-1" source="qlyE4x5iA-stie9pT-A9-106" target="qlyE4x5iA-stie9pT-A9-117" edge="1">
          <mxGeometry relative="1" as="geometry" />
        </mxCell>
        <mxCell id="qlyE4x5iA-stie9pT-A9-106" value="&lt;font size=&quot;3&quot;&gt;input message to direct_chats (DC) / group_chat_messages (GCM) &lt;/font&gt;&lt;font size=&quot;3&quot;&gt;table &lt;br&gt;&lt;/font&gt;" style="rounded=1;whiteSpace=wrap;html=1;absoluteArcSize=1;arcSize=14;strokeWidth=2;spacingLeft=10;spacingRight=10;" parent="WIyWlLk6GJQsqaUBKTNV-1" vertex="1">
          <mxGeometry x="43.5" y="540" width="210" height="100" as="geometry" />
        </mxCell>
        <mxCell id="qlyE4x5iA-stie9pT-A9-107" value="" style="edgeStyle=orthogonalEdgeStyle;rounded=0;orthogonalLoop=1;jettySize=auto;html=1;strokeWidth=3;" parent="WIyWlLk6GJQsqaUBKTNV-1" source="qlyE4x5iA-stie9pT-A9-111" target="qlyE4x5iA-stie9pT-A9-113" edge="1">
          <mxGeometry relative="1" as="geometry" />
        </mxCell>
        <mxCell id="qlyE4x5iA-stie9pT-A9-108" value="&lt;font style=&quot;font-size: 18px;&quot;&gt;NO&lt;/font&gt;" style="edgeLabel;html=1;align=center;verticalAlign=middle;resizable=0;points=[];" parent="qlyE4x5iA-stie9pT-A9-107" vertex="1" connectable="0">
          <mxGeometry x="-0.1412" y="-2" relative="1" as="geometry">
            <mxPoint as="offset" />
          </mxGeometry>
        </mxCell>
        <mxCell id="qlyE4x5iA-stie9pT-A9-109" value="" style="edgeStyle=orthogonalEdgeStyle;rounded=0;orthogonalLoop=1;jettySize=auto;html=1;strokeWidth=3;" parent="WIyWlLk6GJQsqaUBKTNV-1" source="qlyE4x5iA-stie9pT-A9-111" target="qlyE4x5iA-stie9pT-A9-106" edge="1">
          <mxGeometry relative="1" as="geometry" />
        </mxCell>
        <mxCell id="qlyE4x5iA-stie9pT-A9-110" value="&lt;font style=&quot;font-size: 18px;&quot;&gt;YES&lt;/font&gt;" style="edgeLabel;html=1;align=center;verticalAlign=middle;resizable=0;points=[];" parent="qlyE4x5iA-stie9pT-A9-109" vertex="1" connectable="0">
          <mxGeometry x="-0.3059" relative="1" as="geometry">
            <mxPoint as="offset" />
          </mxGeometry>
        </mxCell>
        <mxCell id="qlyE4x5iA-stie9pT-A9-111" value="&lt;font size=&quot;3&quot;&gt;filter success?&lt;br&gt;&lt;/font&gt;" style="strokeWidth=2;html=1;shape=mxgraph.flowchart.decision;whiteSpace=wrap;verticalAlign=middle;spacingBottom=10;" parent="WIyWlLk6GJQsqaUBKTNV-1" vertex="1">
          <mxGeometry x="98.5" y="380" width="100" height="100" as="geometry" />
        </mxCell>
        <mxCell id="qlyE4x5iA-stie9pT-A9-112" value="" style="edgeStyle=orthogonalEdgeStyle;rounded=0;orthogonalLoop=1;jettySize=auto;html=1;strokeWidth=3;" parent="WIyWlLk6GJQsqaUBKTNV-1" source="qlyE4x5iA-stie9pT-A9-113" target="qlyE4x5iA-stie9pT-A9-101" edge="1">
          <mxGeometry relative="1" as="geometry" />
        </mxCell>
        <mxCell id="qlyE4x5iA-stie9pT-A9-113" value="&lt;font size=&quot;3&quot;&gt;display message error&lt;br&gt;&lt;/font&gt;" style="strokeWidth=2;html=1;shape=mxgraph.flowchart.display;whiteSpace=wrap;" parent="WIyWlLk6GJQsqaUBKTNV-1" vertex="1">
          <mxGeometry x="53.5" y="210" width="190" height="100" as="geometry" />
        </mxCell>
        <mxCell id="qlyE4x5iA-stie9pT-A9-114" value="" style="edgeStyle=orthogonalEdgeStyle;rounded=0;orthogonalLoop=1;jettySize=auto;html=1;strokeWidth=3;" parent="WIyWlLk6GJQsqaUBKTNV-1" source="qlyE4x5iA-stie9pT-A9-115" target="qlyE4x5iA-stie9pT-A9-116" edge="1">
          <mxGeometry relative="1" as="geometry" />
        </mxCell>
        <mxCell id="qlyE4x5iA-stie9pT-A9-115" value="&lt;font size=&quot;3&quot;&gt;display check icon as sign of success&lt;/font&gt;&lt;font size=&quot;3&quot;&gt;&lt;/font&gt;" style="strokeWidth=2;html=1;shape=mxgraph.flowchart.display;whiteSpace=wrap;spacingRight=10;spacingLeft=10;" parent="WIyWlLk6GJQsqaUBKTNV-1" vertex="1">
          <mxGeometry x="-204" y="540" width="190" height="100" as="geometry" />
        </mxCell>
        <mxCell id="qlyE4x5iA-stie9pT-A9-116" value="&lt;font size=&quot;3&quot;&gt;END&lt;/font&gt;" style="strokeWidth=2;html=1;shape=mxgraph.flowchart.terminator;whiteSpace=wrap;" parent="WIyWlLk6GJQsqaUBKTNV-1" vertex="1">
          <mxGeometry x="-169" y="710" width="120" height="60" as="geometry" />
        </mxCell>
        <mxCell id="qlyE4x5iA-stie9pT-A9-117" value="&lt;p style=&quot;line-height: 120%;&quot;&gt;&lt;font style=&quot;font-size: 16px;&quot;&gt;DC / GCM table&lt;br&gt;&lt;/font&gt;&lt;/p&gt;" style="strokeWidth=2;html=1;shape=mxgraph.flowchart.merge_or_storage;whiteSpace=wrap;verticalAlign=middle;horizontal=1;spacingTop=0;spacingBottom=20;spacingLeft=20;spacingRight=20;" parent="WIyWlLk6GJQsqaUBKTNV-1" vertex="1">
          <mxGeometry x="85.25" y="680" width="126.5" height="60" as="geometry" />
        </mxCell>
        <mxCell id="qlyE4x5iA-stie9pT-A9-118" value="&lt;font style=&quot;font-size: 18px;&quot;&gt;A&lt;/font&gt;" style="ellipse;whiteSpace=wrap;html=1;aspect=fixed;strokeWidth=2;" parent="WIyWlLk6GJQsqaUBKTNV-1" vertex="1">
          <mxGeometry x="480" y="800" width="50" height="50" as="geometry" />
        </mxCell>
        <mxCell id="qlyE4x5iA-stie9pT-A9-121" value="&lt;font style=&quot;font-size: 18px;&quot;&gt;A&lt;/font&gt;" style="ellipse;whiteSpace=wrap;html=1;aspect=fixed;strokeWidth=2;" parent="WIyWlLk6GJQsqaUBKTNV-1" vertex="1">
          <mxGeometry x="-397.5" y="660" width="50" height="50" as="geometry" />
        </mxCell>
        <mxCell id="qlyE4x5iA-stie9pT-A9-125" value="" style="edgeStyle=orthogonalEdgeStyle;rounded=0;orthogonalLoop=1;jettySize=auto;html=1;strokeWidth=3;" parent="WIyWlLk6GJQsqaUBKTNV-1" source="qlyE4x5iA-stie9pT-A9-123" target="qlyE4x5iA-stie9pT-A9-101" edge="1">
          <mxGeometry relative="1" as="geometry" />
        </mxCell>
        <mxCell id="qlyE4x5iA-stie9pT-A9-123" value="&lt;font style=&quot;font-size: 18px;&quot;&gt;A&lt;/font&gt;" style="ellipse;whiteSpace=wrap;html=1;aspect=fixed;strokeWidth=2;" parent="WIyWlLk6GJQsqaUBKTNV-1" vertex="1">
          <mxGeometry x="75" y="105" width="50" height="50" as="geometry" />
        </mxCell>
        <mxCell id="qlyE4x5iA-stie9pT-A9-128" value="" style="edgeStyle=orthogonalEdgeStyle;rounded=0;orthogonalLoop=1;jettySize=auto;html=1;strokeWidth=3;" parent="WIyWlLk6GJQsqaUBKTNV-1" source="qlyE4x5iA-stie9pT-A9-126" target="qlyE4x5iA-stie9pT-A9-121" edge="1">
          <mxGeometry relative="1" as="geometry" />
        </mxCell>
        <mxCell id="qlyE4x5iA-stie9pT-A9-126" value="&lt;font size=&quot;3&quot;&gt;select user to chat with&lt;br&gt;&lt;/font&gt;" style="shape=parallelogram;html=1;strokeWidth=2;perimeter=parallelogramPerimeter;whiteSpace=wrap;rounded=1;arcSize=12;size=0.23;spacingLeft=30;spacingRight=30;" parent="WIyWlLk6GJQsqaUBKTNV-1" vertex="1">
          <mxGeometry x="-480" y="520" width="215" height="100" as="geometry" />
        </mxCell>
        <mxCell id="9Kh59eUZxxJnhnXivkwY-3" value="" style="edgeStyle=orthogonalEdgeStyle;rounded=0;orthogonalLoop=1;jettySize=auto;html=1;strokeWidth=3;" edge="1" parent="WIyWlLk6GJQsqaUBKTNV-1" source="9Kh59eUZxxJnhnXivkwY-1" target="9Kh59eUZxxJnhnXivkwY-2">
          <mxGeometry relative="1" as="geometry" />
        </mxCell>
        <mxCell id="9Kh59eUZxxJnhnXivkwY-1" value="&lt;font size=&quot;3&quot;&gt;START&lt;/font&gt;" style="strokeWidth=2;html=1;shape=mxgraph.flowchart.terminator;whiteSpace=wrap;" vertex="1" parent="WIyWlLk6GJQsqaUBKTNV-1">
          <mxGeometry x="-20" y="990" width="120" height="60" as="geometry" />
        </mxCell>
        <mxCell id="9Kh59eUZxxJnhnXivkwY-5" value="" style="edgeStyle=orthogonalEdgeStyle;rounded=0;orthogonalLoop=1;jettySize=auto;html=1;strokeWidth=3;" edge="1" parent="WIyWlLk6GJQsqaUBKTNV-1" source="9Kh59eUZxxJnhnXivkwY-2" target="9Kh59eUZxxJnhnXivkwY-4">
          <mxGeometry relative="1" as="geometry" />
        </mxCell>
        <mxCell id="9Kh59eUZxxJnhnXivkwY-2" value="&lt;font size=&quot;3&quot;&gt;open any direct / group chat on the list&lt;br&gt;&lt;/font&gt;" style="shape=parallelogram;html=1;strokeWidth=2;perimeter=parallelogramPerimeter;whiteSpace=wrap;rounded=1;arcSize=12;size=0.23;spacingLeft=30;spacingRight=30;" vertex="1" parent="WIyWlLk6GJQsqaUBKTNV-1">
          <mxGeometry x="-70" y="1090" width="220" height="100" as="geometry" />
        </mxCell>
        <mxCell id="9Kh59eUZxxJnhnXivkwY-11" value="" style="edgeStyle=orthogonalEdgeStyle;rounded=0;orthogonalLoop=1;jettySize=auto;html=1;strokeWidth=3;" edge="1" parent="WIyWlLk6GJQsqaUBKTNV-1" source="9Kh59eUZxxJnhnXivkwY-4" target="9Kh59eUZxxJnhnXivkwY-10">
          <mxGeometry relative="1" as="geometry" />
        </mxCell>
        <mxCell id="9Kh59eUZxxJnhnXivkwY-4" value="&lt;div&gt;&lt;font size=&quot;3&quot;&gt;get the chat ID and find it in direct_chats (DC) / group_chat_messages (GCM) table&lt;/font&gt;&lt;/div&gt;" style="rounded=1;whiteSpace=wrap;html=1;absoluteArcSize=1;arcSize=14;strokeWidth=2;spacingLeft=10;spacingRight=10;" vertex="1" parent="WIyWlLk6GJQsqaUBKTNV-1">
          <mxGeometry x="-11.5" y="1240" width="210" height="100" as="geometry" />
        </mxCell>
        <mxCell id="9Kh59eUZxxJnhnXivkwY-15" value="" style="edgeStyle=orthogonalEdgeStyle;rounded=0;orthogonalLoop=1;jettySize=auto;html=1;strokeWidth=3;" edge="1" parent="WIyWlLk6GJQsqaUBKTNV-1" source="9Kh59eUZxxJnhnXivkwY-7" target="9Kh59eUZxxJnhnXivkwY-4">
          <mxGeometry relative="1" as="geometry" />
        </mxCell>
        <mxCell id="9Kh59eUZxxJnhnXivkwY-7" value="&lt;p style=&quot;line-height: 120%;&quot;&gt;&lt;font style=&quot;font-size: 16px;&quot;&gt;DC / GCM table&lt;br&gt;&lt;/font&gt;&lt;/p&gt;" style="strokeWidth=2;html=1;shape=mxgraph.flowchart.merge_or_storage;whiteSpace=wrap;verticalAlign=middle;horizontal=1;spacingTop=0;spacingBottom=20;spacingLeft=20;spacingRight=20;" vertex="1" parent="WIyWlLk6GJQsqaUBKTNV-1">
          <mxGeometry x="-190" y="1255" width="120" height="70" as="geometry" />
        </mxCell>
        <mxCell id="9Kh59eUZxxJnhnXivkwY-14" value="" style="edgeStyle=orthogonalEdgeStyle;rounded=0;orthogonalLoop=1;jettySize=auto;html=1;strokeWidth=3;" edge="1" parent="WIyWlLk6GJQsqaUBKTNV-1" source="9Kh59eUZxxJnhnXivkwY-10" target="9Kh59eUZxxJnhnXivkwY-13">
          <mxGeometry relative="1" as="geometry" />
        </mxCell>
        <mxCell id="9Kh59eUZxxJnhnXivkwY-10" value="&lt;font size=&quot;3&quot;&gt;display all the messages&lt;br&gt;&lt;/font&gt;" style="strokeWidth=2;html=1;shape=mxgraph.flowchart.display;whiteSpace=wrap;" vertex="1" parent="WIyWlLk6GJQsqaUBKTNV-1">
          <mxGeometry x="-60" y="1400" width="210" height="100" as="geometry" />
        </mxCell>
        <mxCell id="9Kh59eUZxxJnhnXivkwY-13" value="&lt;font size=&quot;3&quot;&gt;END&lt;/font&gt;" style="strokeWidth=2;html=1;shape=mxgraph.flowchart.terminator;whiteSpace=wrap;" vertex="1" parent="WIyWlLk6GJQsqaUBKTNV-1">
          <mxGeometry x="-15" y="1550" width="120" height="60" as="geometry" />
        </mxCell>
      </root>
    </mxGraphModel>
  </diagram>
</mxfile>
